# xmcd
#
# Track frame offsets: 
#        150
#        11310
#        16022
#        35610
#        60595
#        71185
#        84850
#        93432
#        98115
#        119002
#        132207
#        158217
#        164867
#        171882
#        182772
#        201605
#        214737
#        223230
#
# Disc length: 3150 seconds
#
# Revision: 9
# Processed by: cddbd v1.5.2PL0 Copyright (c) Steve Scherf et al.
# Submitted via: ExactAudioCopy v1.0b3
#
DISCID=050c4c12
DTITLE=Danny Elfman - Mission Impossible Motion Picture Score
DYEAR=1996
DGENRE=Soundtrack
TTITLE0=Sleeping Beauty
TTITLE1=Mission: Impossible Theme
TTITLE2=Red Handed
TTITLE3=Big Trouble
TTITLE4=Love Theme?
TTITLE5=Mole Hunt
TTITLE6=The Disc
TTITLE7=Max Found
TTITLE8=Looking for "Job"
TTITLE9=Betrayal
TTITLE10=The Heist
TTITLE11=Uh-Oh!
TTITLE12=Biblical Revelation
TTITLE13=Phone Home
TTITLE14=Train Time
TTITLE15=Ménage à Trois
TTITLE16=Zoom A
TTITLE17=Zoom B
EXTD=
EXTT0=
EXTT1=
EXTT2=
EXTT3=
EXTT4=
EXTT5=
EXTT6=
EXTT7=
EXTT8=
EXTT9=
EXTT10=
EXTT11=
EXTT12=
EXTT13=
EXTT14=
EXTT15=
EXTT16=
EXTT17=
PLAYORDER=
